<?xml version="1.0" encoding="utf-8"?>
<svg viewBox="0 0 160 192" fill="none" xmlns="http://www.w3.org/2000/svg" xmlns:bx="https://boxy-svg.com" width="160px" height="192px"><path d="M0.12699 43.8989C-0.863275 37.1255 4.04575 30.863 11.0915 29.911L113.152 16.1221C120.197 15.1702 126.712 19.8893 127.702 26.6627L147.873 164.635C148.863 171.409 143.954 177.671 136.908 178.623L39.1006 191.837C29.7063 193.107 21.0203 186.814 19.7001 177.784L0.12699 43.8989Z" fill="url(#paint0_linear_1288_1252)"/><path d="M10.1376 30.5728C9.06487 22.8787 14.3827 15.7647 22.0152 14.6834L124.678 0.138664C132.31 -0.942678 139.367 4.41806 140.44 12.1122L159.862 151.427C160.935 159.121 155.617 166.235 147.985 167.317L45.3224 181.861C37.6899 182.943 30.6329 177.582 29.5602 169.888L10.1376 30.5728Z" fill="url(#paint1_linear_1288_1252)"/><path d="M19.0979 33.7417C18.3346 28.2753 22.1183 23.221 27.5489 22.4527L121.946 9.09852C127.376 8.33025 132.397 12.1389 133.161 17.6054L151.402 148.258C152.165 153.725 148.382 158.779 142.951 159.547L48.5544 172.901C43.1238 173.67 38.1027 169.861 37.3394 164.395L19.0979 33.7417Z" fill="white"/><g transform="matrix(1, 0, 0, 1, -118.526314, -37.80117)"><path d="M 206.049 93.365 C 206.42 93.596 206.791 93.826 207.162 94.055 C 207.365 94.181 207.568 94.306 207.776 94.436 C 208.887 95.115 210.013 95.77 211.138 96.425 C 211.797 96.811 212.456 97.197 213.115 97.583 C 213.24 97.655 213.364 97.728 213.493 97.803 C 214.356 98.309 215.215 98.82 216.071 99.337 C 217.552 100.232 219.046 101.104 220.54 101.977 C 222.742 103.264 224.936 104.562 227.118 105.882 C 228.083 106.466 229.051 107.042 230.037 107.591 C 230.204 107.686 230.372 107.78 230.544 107.877 C 230.85 108.049 231.159 108.218 231.467 108.384 C 232.061 108.719 232.431 108.944 232.718 109.574 C 232.684 110.269 232.467 110.585 232.065 111.151 C 231.569 111.52 231.569 111.52 230.975 111.859 C 230.642 112.052 230.642 112.052 230.301 112.251 C 230.122 112.352 230.122 112.352 229.941 112.455 C 229.431 112.744 228.923 113.04 228.417 113.335 C 228.151 113.49 227.886 113.644 227.619 113.798 C 226.236 114.599 224.87 115.427 223.506 116.259 C 223.264 116.407 223.022 116.555 222.78 116.701 C 222.291 117 221.802 117.297 221.313 117.595 C 220.033 118.375 218.75 119.153 217.469 119.931 C 217.345 120.006 217.22 120.082 217.091 120.16 C 215.755 120.972 214.419 121.781 213.079 122.584 C 211.548 123.5 210.025 124.428 208.5 125.357 C 208.112 125.594 207.723 125.831 207.335 126.065 C 206.956 126.297 206.58 126.532 206.207 126.773 C 206.029 126.886 205.851 126.999 205.668 127.116 C 205.511 127.216 205.355 127.318 205.194 127.422 C 204.51 127.745 203.97 127.848 203.213 127.875 C 202.544 127.607 202.544 127.607 201.861 127.193 C 201.738 127.118 201.615 127.045 201.487 126.969 C 201.089 126.731 200.694 126.487 200.299 126.243 C 200.024 126.076 199.749 125.91 199.473 125.744 C 198.696 125.276 197.922 124.8 197.15 124.322 C 196.882 124.156 196.882 124.156 196.608 123.987 C 195.937 123.573 195.269 123.153 194.601 122.73 C 192.962 121.695 191.288 120.715 189.623 119.722 C 188.081 118.801 186.542 117.874 185.007 116.942 C 184.808 116.821 184.808 116.821 184.606 116.698 C 183.935 116.29 183.263 115.881 182.592 115.473 C 182.342 115.321 182.094 115.169 181.844 115.018 C 181.621 114.882 181.398 114.747 181.168 114.606 C 180.856 114.42 180.54 114.239 180.215 114.077 C 180.179 115.305 180.152 116.532 180.134 117.759 C 180.127 118.177 180.117 118.595 180.104 119.011 C 180.087 119.612 180.078 120.214 180.073 120.815 C 180.064 121 180.057 121.186 180.049 121.377 C 180.043 122.392 180.043 122.392 180.54 123.243 C 180.927 123.578 180.927 123.578 181.333 123.851 C 181.892 124.273 181.988 124.69 182.097 125.367 C 182.126 126.337 181.971 126.913 181.43 127.732 C 180.613 128.512 179.998 128.877 178.869 129 C 177.737 128.88 176.946 128.602 176.164 127.758 C 175.501 126.764 175.485 125.917 175.615 124.74 C 175.992 123.986 176.261 123.594 176.992 123.175 C 177.785 122.349 177.674 121.484 177.687 120.378 C 177.692 120.156 177.696 119.932 177.701 119.702 C 177.708 119.231 177.712 118.76 177.714 118.289 C 177.719 117.57 177.744 116.853 177.769 116.133 C 177.907 113.998 177.907 113.998 177.242 112.045 C 176.578 111.461 175.817 111.206 174.988 110.941 C 174.691 110.346 174.709 109.926 174.78 109.268 C 175.158 108.871 175.158 108.871 175.686 108.54 C 175.878 108.417 176.069 108.294 176.268 108.167 C 176.565 107.988 176.565 107.988 176.869 107.805 C 177.134 107.643 177.134 107.643 177.405 107.479 C 177.963 107.145 178.526 106.821 179.092 106.498 C 179.531 106.244 179.971 105.99 180.41 105.736 C 180.645 105.598 180.881 105.462 181.123 105.323 C 182.4 104.581 183.67 103.827 184.939 103.073 C 185.226 102.903 185.513 102.732 185.8 102.562 C 187.421 101.601 189.033 100.627 190.636 99.637 C 191.745 98.958 192.867 98.299 193.987 97.638 C 195.889 96.515 197.784 95.385 199.672 94.241 C 199.875 94.118 200.08 93.995 200.289 93.868 C 200.476 93.755 200.662 93.641 200.855 93.524 C 201.1 93.376 201.1 93.376 201.35 93.223 C 201.776 92.963 201.776 92.963 202.167 92.543 C 203.74 91.981 204.739 92.527 206.049 93.365 Z" fill="url(#paint1_linear_1288_1252)"/><path d="M 185.633 119.766 C 186.495 120.089 187.27 120.484 188.066 120.946 C 188.313 121.088 188.56 121.231 188.814 121.378 C 189.074 121.529 189.335 121.681 189.604 121.837 C 189.876 121.995 190.148 122.153 190.42 122.311 C 192.018 123.238 193.608 124.176 195.188 125.132 C 196.429 125.881 197.678 126.62 198.925 127.359 C 199.202 127.523 199.478 127.687 199.755 127.851 C 200.392 128.229 201.029 128.605 201.67 128.975 C 202.316 129.365 202.316 129.365 202.777 129.718 C 203.192 130.056 203.192 130.056 203.916 130.279 C 204.759 130.031 205.459 129.599 206.201 129.136 C 206.476 128.977 206.476 128.977 206.757 128.815 C 207.314 128.491 207.865 128.158 208.415 127.822 C 208.616 127.701 208.816 127.58 209.022 127.455 C 209.606 127.102 210.189 126.748 210.772 126.394 C 212.898 125.106 215.036 123.837 217.177 122.575 C 217.475 122.399 217.773 122.223 218.071 122.046 C 218.494 121.795 218.918 121.546 219.342 121.296 C 219.59 121.15 219.837 121.004 220.092 120.854 C 220.864 120.432 221.604 120.075 222.428 119.766 C 222.654 119.879 222.654 119.879 222.885 119.995 C 222.908 121.471 222.924 122.947 222.935 124.424 C 222.939 124.926 222.946 125.428 222.954 125.93 C 222.965 126.652 222.97 127.374 222.974 128.096 C 222.979 128.32 222.983 128.544 222.988 128.775 C 222.989 129.732 222.976 130.343 222.508 131.191 C 221.893 131.717 221.356 131.984 220.6 132.273 C 220.329 132.381 220.057 132.488 219.777 132.598 C 219.634 132.653 219.491 132.708 219.343 132.765 C 218.588 133.056 217.838 133.361 217.088 133.666 C 216.938 133.727 216.788 133.788 216.633 133.851 C 213.275 135.233 210.177 137.073 207.139 139.048 C 206.826 139.249 206.514 139.449 206.201 139.649 C 206.059 139.742 205.918 139.835 205.772 139.931 C 204.886 140.484 204.27 140.72 203.23 140.563 C 202.601 140.278 202.601 140.278 201.959 139.878 C 201.719 139.731 201.48 139.584 201.233 139.433 C 200.987 139.278 200.741 139.123 200.488 138.964 C 197.006 136.8 193.526 134.683 189.67 133.249 C 189.454 133.169 189.238 133.089 189.016 133.006 C 188.587 132.848 188.157 132.692 187.726 132.539 C 185.675 131.791 185.675 131.791 185.176 130.965 C 184.722 129.084 184.897 126.956 184.892 125.029 C 184.89 124.461 184.883 123.893 184.876 123.325 C 184.874 122.963 184.873 122.601 184.872 122.238 C 184.869 122.069 184.866 121.9 184.864 121.725 C 184.869 120.554 184.869 120.554 185.295 119.997 C 185.406 119.921 185.518 119.845 185.633 119.766 Z" fill="url(#paint1_linear_1288_1252)" style=""/><path d="M 192.56 137.043 C 196.634 139.118 201.063 142.1 203.544 146.022 C 203.544 146.166 203.544 146.31 203.544 146.458 C 203.688 146.458 203.832 146.458 203.98 146.458 C 204.032 146.339 204.085 146.221 204.138 146.099 C 204.483 145.461 204.909 144.937 205.367 144.377 C 205.535 144.17 205.703 143.963 205.876 143.75 C 206.374 143.193 206.374 143.193 206.859 142.833 C 207.311 142.547 207.311 142.547 207.463 141.887 C 207.804 141.689 208.147 141.494 208.495 141.309 C 209.093 140.952 209.622 140.534 210.17 140.104 C 211.717 138.929 213.361 137.994 215.082 137.097 C 215.214 137.028 215.346 136.959 215.483 136.888 C 220.086 134.522 225.945 132.517 231.19 132.961 C 231.908 133.337 232.021 133.493 232.279 134.267 C 232.3 134.561 232.309 134.855 232.31 135.15 C 232.311 135.329 232.313 135.508 232.314 135.692 C 232.314 135.889 232.314 136.085 232.314 136.286 C 232.315 136.493 232.316 136.699 232.317 136.913 C 232.321 137.597 232.323 138.283 232.324 138.967 C 232.325 139.442 232.326 139.917 232.327 140.393 C 232.329 141.39 232.331 142.387 232.331 143.384 C 232.333 144.662 232.338 145.941 232.345 147.219 C 232.349 148.201 232.35 149.183 232.35 150.163 C 232.351 150.635 232.352 151.107 232.355 151.578 C 232.359 152.237 232.359 152.895 232.358 153.554 C 232.359 153.75 232.361 153.945 232.363 154.147 C 232.354 155.456 232.354 155.456 231.996 156.152 C 231.4 156.668 230.696 156.71 229.939 156.812 C 229.599 156.865 229.26 156.92 228.92 156.974 C 228.589 157.025 228.257 157.075 227.926 157.125 C 221.231 158.146 214.977 161.059 209.639 165.179 C 209.502 165.285 209.363 165.392 209.221 165.501 C 208.137 166.337 207.054 167.173 206.021 168.069 C 205.856 168.211 205.689 168.353 205.518 168.499 C 205.38 168.622 205.244 168.744 205.102 168.87 C 204.373 169.223 203.88 169.079 203.109 168.88 C 202.536 168.506 202.536 168.506 201.993 168.023 C 201.787 167.846 201.581 167.668 201.369 167.485 C 201.153 167.299 200.937 167.113 200.714 166.921 C 194.053 161.566 186.621 157.761 178.024 156.894 C 177.711 156.861 177.711 156.861 177.393 156.828 C 177.209 156.812 177.025 156.796 176.835 156.778 C 176.281 156.68 175.925 156.578 175.462 156.254 C 174.916 155.255 174.964 154.272 174.967 153.165 C 174.966 152.965 174.965 152.765 174.964 152.559 C 174.961 151.899 174.961 151.24 174.962 150.582 C 174.961 150.122 174.959 149.663 174.958 149.204 C 174.957 148.243 174.957 147.281 174.958 146.32 C 174.959 145.088 174.955 143.857 174.951 142.625 C 174.947 141.677 174.947 140.729 174.947 139.782 C 174.947 139.328 174.946 138.873 174.944 138.42 C 174.942 137.785 174.943 137.149 174.945 136.514 C 174.944 136.328 174.942 136.14 174.941 135.947 C 174.95 134.871 175.061 134.101 175.68 133.179 C 180.644 131.524 188.166 134.894 192.56 137.043 Z" fill="url(#paint4_linear_1288_1252)" style=""/></g><defs><linearGradient id="paint0_linear_1288_1252" x1="0.447599" y1="16.413" x2="148.448" y2="191.541" gradientUnits="userSpaceOnUse"><stop stop-color="#508AB7"/><stop offset="1" stop-color="#2D1342"/></linearGradient><linearGradient id="paint1_linear_1288_1252" x1="11.1858" y1="19.1536" x2="158.875" y2="162.67" gradientUnits="userSpaceOnUse"><stop stop-color="#49C7FF"/><stop offset="1" stop-color="#BD36FF"/></linearGradient><linearGradient id="paint4_linear_1288_1252" x1="45.2957" y1="42.0327" x2="84.5852" y2="84.667" gradientUnits="userSpaceOnUse" gradientTransform="matrix(0.002103, 0, 0, 0.002103, 576.932788, 191.357084)"><stop stop-color="#41D1FF"/><stop offset="1" stop-color="#BD34FE"/></linearGradient><bx:export><bx:file format="png"/><bx:file format="svg"/></bx:export></defs></svg>